<svg width="32" height="32" viewBox="0 0 32 32" fill="none" xmlns="http://www.w3.org/2000/svg">
<path d="M0 4C0 1.79086 1.79086 0 4 0H28C30.2091 0 32 1.79086 32 4V28C32 30.2091 30.2091 32 28 32H4C1.79086 32 0 30.2091 0 28V4Z" fill="#FB923C"/>
<path d="M15.2961 12.293C15.6867 11.9023 16.3211 11.9023 16.7117 12.293L22.7117 18.293C23.1023 18.6836 23.1023 19.318 22.7117 19.7086C22.3211 20.0992 21.6867 20.0992 21.2961 19.7086L16.0023 14.4148L10.7086 19.7055C10.318 20.0961 9.68359 20.0961 9.29297 19.7055C8.90234 19.3148 8.90234 18.6805 9.29297 18.2898L15.293 12.2898L15.2961 12.293Z" fill="#262626"/>
</svg>
